<mxfile host="app.diagrams.net" modified="2023-05-31T06:42:51.643Z" agent="Mozilla/5.0 (Windows NT 10.0; Win64; x64) AppleWebKit/537.36 (KHTML, like Gecko) Chrome/113.0.0.0 Safari/537.36 Edg/113.0.1774.50" etag="zegQ1bO7GTByti1fxTjt" version="21.3.6" type="device">
  <diagram name="Page-1" id="Rdh4OBG88SJ8ypQ-LgyT">
    <mxGraphModel dx="825" dy="476" grid="1" gridSize="10" guides="1" tooltips="1" connect="1" arrows="1" fold="1" page="1" pageScale="1" pageWidth="850" pageHeight="1100" math="0" shadow="0">
      <root>
        <mxCell id="0" />
        <mxCell id="1" parent="0" />
        <mxCell id="7PNiAIppo8PyKN0G4d_u-2" value="&lt;font style=&quot;font-size: 22px;&quot;&gt;user&lt;/font&gt;" style="rounded=0;whiteSpace=wrap;html=1;" vertex="1" parent="1">
          <mxGeometry x="150" y="210" width="120" height="60" as="geometry" />
        </mxCell>
        <mxCell id="7PNiAIppo8PyKN0G4d_u-4" value="&lt;font style=&quot;font-size: 20px;&quot;&gt;contact&lt;/font&gt;" style="rounded=0;whiteSpace=wrap;html=1;" vertex="1" parent="1">
          <mxGeometry x="600" y="210" width="120" height="60" as="geometry" />
        </mxCell>
        <mxCell id="7PNiAIppo8PyKN0G4d_u-11" value="description" style="ellipse;whiteSpace=wrap;html=1;" vertex="1" parent="1">
          <mxGeometry x="310" y="80" width="70" height="40" as="geometry" />
        </mxCell>
        <mxCell id="7PNiAIppo8PyKN0G4d_u-12" value="image" style="ellipse;whiteSpace=wrap;html=1;" vertex="1" parent="1">
          <mxGeometry x="220" y="50" width="70" height="40" as="geometry" />
        </mxCell>
        <mxCell id="7PNiAIppo8PyKN0G4d_u-13" value="password" style="ellipse;whiteSpace=wrap;html=1;" vertex="1" parent="1">
          <mxGeometry x="120" y="50" width="70" height="40" as="geometry" />
        </mxCell>
        <mxCell id="7PNiAIppo8PyKN0G4d_u-14" value="email" style="ellipse;whiteSpace=wrap;html=1;" vertex="1" parent="1">
          <mxGeometry x="30" y="90" width="70" height="40" as="geometry" />
        </mxCell>
        <mxCell id="7PNiAIppo8PyKN0G4d_u-15" value="name" style="ellipse;whiteSpace=wrap;html=1;" vertex="1" parent="1">
          <mxGeometry x="10" y="160" width="70" height="40" as="geometry" />
        </mxCell>
        <mxCell id="7PNiAIppo8PyKN0G4d_u-16" value="uid" style="ellipse;whiteSpace=wrap;html=1;" vertex="1" parent="1">
          <mxGeometry x="10" y="220" width="60" height="40" as="geometry" />
        </mxCell>
        <mxCell id="7PNiAIppo8PyKN0G4d_u-17" value="role" style="ellipse;whiteSpace=wrap;html=1;" vertex="1" parent="1">
          <mxGeometry x="350" y="160" width="60" height="40" as="geometry" />
        </mxCell>
        <mxCell id="7PNiAIppo8PyKN0G4d_u-18" value="enable" style="ellipse;whiteSpace=wrap;html=1;" vertex="1" parent="1">
          <mxGeometry x="350" y="220" width="60" height="40" as="geometry" />
        </mxCell>
        <mxCell id="7PNiAIppo8PyKN0G4d_u-20" value="" style="endArrow=none;html=1;rounded=0;entryX=0;entryY=0.5;entryDx=0;entryDy=0;" edge="1" parent="1" target="7PNiAIppo8PyKN0G4d_u-2">
          <mxGeometry width="50" height="50" relative="1" as="geometry">
            <mxPoint x="70" y="240" as="sourcePoint" />
            <mxPoint x="120" y="210" as="targetPoint" />
          </mxGeometry>
        </mxCell>
        <mxCell id="7PNiAIppo8PyKN0G4d_u-21" value="" style="endArrow=none;html=1;rounded=0;exitX=1;exitY=0.5;exitDx=0;exitDy=0;entryX=0;entryY=0.5;entryDx=0;entryDy=0;" edge="1" parent="1" source="7PNiAIppo8PyKN0G4d_u-2" target="7PNiAIppo8PyKN0G4d_u-18">
          <mxGeometry width="50" height="50" relative="1" as="geometry">
            <mxPoint x="400" y="260" as="sourcePoint" />
            <mxPoint x="450" y="210" as="targetPoint" />
            <Array as="points" />
          </mxGeometry>
        </mxCell>
        <mxCell id="7PNiAIppo8PyKN0G4d_u-24" value="" style="endArrow=none;html=1;rounded=0;entryX=0;entryY=0;entryDx=0;entryDy=0;" edge="1" parent="1" source="7PNiAIppo8PyKN0G4d_u-15" target="7PNiAIppo8PyKN0G4d_u-2">
          <mxGeometry width="50" height="50" relative="1" as="geometry">
            <mxPoint x="80" y="230" as="sourcePoint" />
            <mxPoint x="150.71067811865476" y="180" as="targetPoint" />
          </mxGeometry>
        </mxCell>
        <mxCell id="7PNiAIppo8PyKN0G4d_u-25" value="" style="endArrow=none;html=1;rounded=0;entryX=0;entryY=0.5;entryDx=0;entryDy=0;" edge="1" parent="1" target="7PNiAIppo8PyKN0G4d_u-17">
          <mxGeometry width="50" height="50" relative="1" as="geometry">
            <mxPoint x="270" y="210" as="sourcePoint" />
            <mxPoint x="320" y="160" as="targetPoint" />
          </mxGeometry>
        </mxCell>
        <mxCell id="7PNiAIppo8PyKN0G4d_u-26" value="" style="endArrow=none;html=1;rounded=0;entryX=0.271;entryY=0.975;entryDx=0;entryDy=0;entryPerimeter=0;" edge="1" parent="1" target="7PNiAIppo8PyKN0G4d_u-11">
          <mxGeometry width="50" height="50" relative="1" as="geometry">
            <mxPoint x="240" y="210" as="sourcePoint" />
            <mxPoint x="290" y="160" as="targetPoint" />
          </mxGeometry>
        </mxCell>
        <mxCell id="7PNiAIppo8PyKN0G4d_u-27" value="" style="endArrow=none;html=1;rounded=0;entryX=0.971;entryY=0.8;entryDx=0;entryDy=0;entryPerimeter=0;exitX=0.25;exitY=0;exitDx=0;exitDy=0;" edge="1" parent="1" source="7PNiAIppo8PyKN0G4d_u-2" target="7PNiAIppo8PyKN0G4d_u-14">
          <mxGeometry width="50" height="50" relative="1" as="geometry">
            <mxPoint x="110" y="170" as="sourcePoint" />
            <mxPoint x="160" y="120" as="targetPoint" />
          </mxGeometry>
        </mxCell>
        <mxCell id="7PNiAIppo8PyKN0G4d_u-28" value="" style="endArrow=none;html=1;rounded=0;exitX=0.608;exitY=0;exitDx=0;exitDy=0;exitPerimeter=0;" edge="1" parent="1" source="7PNiAIppo8PyKN0G4d_u-2">
          <mxGeometry width="50" height="50" relative="1" as="geometry">
            <mxPoint x="210" y="140" as="sourcePoint" />
            <mxPoint x="260" y="90" as="targetPoint" />
          </mxGeometry>
        </mxCell>
        <mxCell id="7PNiAIppo8PyKN0G4d_u-29" value="" style="endArrow=none;html=1;rounded=0;entryX=0.629;entryY=1.05;entryDx=0;entryDy=0;entryPerimeter=0;exitX=0.442;exitY=0.033;exitDx=0;exitDy=0;exitPerimeter=0;" edge="1" parent="1" source="7PNiAIppo8PyKN0G4d_u-2" target="7PNiAIppo8PyKN0G4d_u-13">
          <mxGeometry width="50" height="50" relative="1" as="geometry">
            <mxPoint x="170" y="160" as="sourcePoint" />
            <mxPoint x="220" y="110" as="targetPoint" />
          </mxGeometry>
        </mxCell>
        <mxCell id="7PNiAIppo8PyKN0G4d_u-30" value="cid" style="ellipse;whiteSpace=wrap;html=1;" vertex="1" parent="1">
          <mxGeometry x="480" y="220" width="60" height="40" as="geometry" />
        </mxCell>
        <mxCell id="7PNiAIppo8PyKN0G4d_u-31" value="email" style="ellipse;whiteSpace=wrap;html=1;" vertex="1" parent="1">
          <mxGeometry x="680" y="30" width="70" height="40" as="geometry" />
        </mxCell>
        <mxCell id="7PNiAIppo8PyKN0G4d_u-32" value="name" style="ellipse;whiteSpace=wrap;html=1;" vertex="1" parent="1">
          <mxGeometry x="490" y="150" width="60" height="40" as="geometry" />
        </mxCell>
        <mxCell id="7PNiAIppo8PyKN0G4d_u-33" value="nickname" style="ellipse;whiteSpace=wrap;html=1;" vertex="1" parent="1">
          <mxGeometry x="500" y="80" width="70" height="40" as="geometry" />
        </mxCell>
        <mxCell id="7PNiAIppo8PyKN0G4d_u-34" value="work" style="ellipse;whiteSpace=wrap;html=1;" vertex="1" parent="1">
          <mxGeometry x="580" y="30" width="70" height="40" as="geometry" />
        </mxCell>
        <mxCell id="7PNiAIppo8PyKN0G4d_u-35" value="image" style="ellipse;whiteSpace=wrap;html=1;" vertex="1" parent="1">
          <mxGeometry x="750" y="80" width="70" height="40" as="geometry" />
        </mxCell>
        <mxCell id="7PNiAIppo8PyKN0G4d_u-38" value="description" style="ellipse;whiteSpace=wrap;html=1;" vertex="1" parent="1">
          <mxGeometry x="765" y="150" width="80" height="40" as="geometry" />
        </mxCell>
        <mxCell id="7PNiAIppo8PyKN0G4d_u-39" value="phone" style="ellipse;whiteSpace=wrap;html=1;" vertex="1" parent="1">
          <mxGeometry x="775" y="220" width="70" height="40" as="geometry" />
        </mxCell>
        <mxCell id="7PNiAIppo8PyKN0G4d_u-40" value="" style="endArrow=none;html=1;rounded=0;" edge="1" parent="1" source="7PNiAIppo8PyKN0G4d_u-4">
          <mxGeometry width="50" height="50" relative="1" as="geometry">
            <mxPoint x="720" y="290" as="sourcePoint" />
            <mxPoint x="790.7106781186548" y="240" as="targetPoint" />
          </mxGeometry>
        </mxCell>
        <mxCell id="7PNiAIppo8PyKN0G4d_u-41" value="" style="endArrow=none;html=1;rounded=0;entryX=0;entryY=0.5;entryDx=0;entryDy=0;exitX=1;exitY=0.5;exitDx=0;exitDy=0;" edge="1" parent="1" source="7PNiAIppo8PyKN0G4d_u-30" target="7PNiAIppo8PyKN0G4d_u-4">
          <mxGeometry width="50" height="50" relative="1" as="geometry">
            <mxPoint x="540" y="270" as="sourcePoint" />
            <mxPoint x="590" y="220" as="targetPoint" />
          </mxGeometry>
        </mxCell>
        <mxCell id="7PNiAIppo8PyKN0G4d_u-42" value="" style="endArrow=none;html=1;rounded=0;entryX=0.013;entryY=0.7;entryDx=0;entryDy=0;entryPerimeter=0;" edge="1" parent="1" target="7PNiAIppo8PyKN0G4d_u-38">
          <mxGeometry width="50" height="50" relative="1" as="geometry">
            <mxPoint x="720" y="210" as="sourcePoint" />
            <mxPoint x="770" y="160" as="targetPoint" />
          </mxGeometry>
        </mxCell>
        <mxCell id="7PNiAIppo8PyKN0G4d_u-43" value="" style="endArrow=none;html=1;rounded=0;entryX=0.967;entryY=0.8;entryDx=0;entryDy=0;entryPerimeter=0;exitX=0;exitY=0;exitDx=0;exitDy=0;" edge="1" parent="1" source="7PNiAIppo8PyKN0G4d_u-4" target="7PNiAIppo8PyKN0G4d_u-32">
          <mxGeometry width="50" height="50" relative="1" as="geometry">
            <mxPoint x="550" y="220" as="sourcePoint" />
            <mxPoint x="600" y="170" as="targetPoint" />
          </mxGeometry>
        </mxCell>
        <mxCell id="7PNiAIppo8PyKN0G4d_u-44" value="" style="endArrow=none;html=1;rounded=0;exitX=0.75;exitY=0;exitDx=0;exitDy=0;" edge="1" parent="1" source="7PNiAIppo8PyKN0G4d_u-4">
          <mxGeometry width="50" height="50" relative="1" as="geometry">
            <mxPoint x="710" y="170" as="sourcePoint" />
            <mxPoint x="760" y="120" as="targetPoint" />
          </mxGeometry>
        </mxCell>
        <mxCell id="7PNiAIppo8PyKN0G4d_u-45" value="" style="endArrow=none;html=1;rounded=0;entryX=1;entryY=1;entryDx=0;entryDy=0;exitX=0.25;exitY=0;exitDx=0;exitDy=0;" edge="1" parent="1" source="7PNiAIppo8PyKN0G4d_u-4" target="7PNiAIppo8PyKN0G4d_u-33">
          <mxGeometry width="50" height="50" relative="1" as="geometry">
            <mxPoint x="560" y="160" as="sourcePoint" />
            <mxPoint x="610" y="110" as="targetPoint" />
          </mxGeometry>
        </mxCell>
        <mxCell id="7PNiAIppo8PyKN0G4d_u-46" value="" style="endArrow=none;html=1;rounded=0;exitX=0.667;exitY=0;exitDx=0;exitDy=0;exitPerimeter=0;" edge="1" parent="1" source="7PNiAIppo8PyKN0G4d_u-4">
          <mxGeometry width="50" height="50" relative="1" as="geometry">
            <mxPoint x="670" y="120" as="sourcePoint" />
            <mxPoint x="720" y="70" as="targetPoint" />
          </mxGeometry>
        </mxCell>
        <mxCell id="7PNiAIppo8PyKN0G4d_u-47" value="" style="endArrow=none;html=1;rounded=0;entryX=0.7;entryY=1.05;entryDx=0;entryDy=0;entryPerimeter=0;exitX=0.417;exitY=0.033;exitDx=0;exitDy=0;exitPerimeter=0;" edge="1" parent="1" source="7PNiAIppo8PyKN0G4d_u-4" target="7PNiAIppo8PyKN0G4d_u-34">
          <mxGeometry width="50" height="50" relative="1" as="geometry">
            <mxPoint x="630" y="150" as="sourcePoint" />
            <mxPoint x="680" y="100" as="targetPoint" />
            <Array as="points" />
          </mxGeometry>
        </mxCell>
        <mxCell id="7PNiAIppo8PyKN0G4d_u-48" value="has" style="html=1;whiteSpace=wrap;aspect=fixed;shape=isoRectangle;" vertex="1" parent="1">
          <mxGeometry x="390" y="300" width="110" height="66" as="geometry" />
        </mxCell>
        <mxCell id="7PNiAIppo8PyKN0G4d_u-49" value="" style="endArrow=none;html=1;rounded=0;exitX=0.608;exitY=0.983;exitDx=0;exitDy=0;exitPerimeter=0;entryX=0;entryY=0.5;entryDx=0;entryDy=0;entryPerimeter=0;" edge="1" parent="1" source="7PNiAIppo8PyKN0G4d_u-2" target="7PNiAIppo8PyKN0G4d_u-48">
          <mxGeometry width="50" height="50" relative="1" as="geometry">
            <mxPoint x="340" y="390" as="sourcePoint" />
            <mxPoint x="390" y="340" as="targetPoint" />
          </mxGeometry>
        </mxCell>
        <mxCell id="7PNiAIppo8PyKN0G4d_u-50" value="" style="endArrow=none;html=1;rounded=0;entryX=0.433;entryY=1;entryDx=0;entryDy=0;entryPerimeter=0;" edge="1" parent="1" target="7PNiAIppo8PyKN0G4d_u-4">
          <mxGeometry width="50" height="50" relative="1" as="geometry">
            <mxPoint x="500" y="330" as="sourcePoint" />
            <mxPoint x="550" y="280" as="targetPoint" />
          </mxGeometry>
        </mxCell>
        <mxCell id="7PNiAIppo8PyKN0G4d_u-51" value="&lt;font style=&quot;font-size: 14px;&quot;&gt;1&lt;/font&gt;" style="text;html=1;strokeColor=none;fillColor=none;align=center;verticalAlign=middle;whiteSpace=wrap;rounded=0;" vertex="1" parent="1">
          <mxGeometry x="260" y="290" width="60" height="30" as="geometry" />
        </mxCell>
        <mxCell id="7PNiAIppo8PyKN0G4d_u-52" value="&lt;font style=&quot;font-size: 22px;&quot;&gt;*&lt;/font&gt;" style="text;html=1;strokeColor=none;fillColor=none;align=center;verticalAlign=middle;whiteSpace=wrap;rounded=0;" vertex="1" parent="1">
          <mxGeometry x="560" y="300" width="60" height="30" as="geometry" />
        </mxCell>
      </root>
    </mxGraphModel>
  </diagram>
</mxfile>
